<svg xmlns="http://www.w3.org/2000/svg" viewBox="0 0 643.31 723.72"><defs><style>.cls-1{fill:#00ff12;}</style></defs><g id="Layer_2" data-name="Layer 2"><g id="Layer_1-2" data-name="Layer 1"><path class="cls-1" d="M482.48,562.89h80.41a80.41,80.41,0,0,0-80.41-80.41H402.07A80.41,80.41,0,0,0,482.48,562.89Z"/><path class="cls-1" d="M482.48,402.07v80.41h80.41A80.41,80.41,0,0,0,482.48,402.07Z"/><path class="cls-1" d="M402.07,482.48V402.07a80.42,80.42,0,0,0-80.42,80.41,80.41,80.41,0,0,0-80.41-80.41v80.41h0a80.42,80.42,0,0,0,160.83,0Z"/><path class="cls-1" d="M160.83,482.48a80.42,80.42,0,0,0-80.42-80.41H0a80.41,80.41,0,0,0,80.41,80.41,80.42,80.42,0,0,0,80.42,80.41Z"/><path class="cls-1" d="M562.89,80.41h80.42A80.42,80.42,0,0,0,562.89,0H482.48A80.41,80.41,0,0,0,562.89,80.41Z"/><path class="cls-1" d="M562.89,482.48h80.42V402.07A80.42,80.42,0,0,0,562.89,482.48Z"/><path class="cls-1" d="M562.89,321.65v80.42h80.42A80.43,80.43,0,0,0,562.89,321.65Z"/><path class="cls-1" d="M482.48,643.31H402.07a80.43,80.43,0,0,0-80.42-80.42v80.42h80.42a80.41,80.41,0,0,0,80.41,80.41h0a80.41,80.41,0,0,0,80.41-80.41,80.42,80.42,0,1,0,0-160.83v80.41A80.42,80.42,0,0,0,482.48,643.31Z"/><path class="cls-1" d="M241.24,562.89a80.42,80.42,0,0,0,0,160.83h80.41a80.41,80.41,0,0,0-80.41-80.41,80.42,80.42,0,0,0,80.41-80.42H241.24Z"/><path class="cls-1" d="M643.31,723.72a80.42,80.42,0,0,0-80.42-80.41v80.41Z"/><path class="cls-1" d="M402.07,402.07a80.42,80.42,0,0,0,80.41-80.42H402.07Z"/><path class="cls-1" d="M562.89,160.83v80.41a80.41,80.41,0,0,0-80.41,80.41v80.42a80.42,80.42,0,0,0,80.41-80.42,80.41,80.41,0,1,0,0-160.82Z"/><path class="cls-1" d="M80.41,241.24h80.42V160.83A80.42,80.42,0,0,0,80.41,241.24Z"/><path class="cls-1" d="M321.65,241.24v80.41a80.41,80.41,0,0,0-80.41-80.41v80.41H160.83a80.41,80.41,0,1,0,160.82,0h80.42A80.42,80.42,0,0,0,321.65,241.24Z"/><path class="cls-1" d="M321.65,80.41H241.24a80.42,80.42,0,0,0,80.41,80.42h80.41a80.41,80.41,0,0,0-80.41,80.41h80.42V160.83A80.43,80.43,0,0,0,321.65,80.41Z"/><path class="cls-1" d="M482.48,80.41v80.42h80.41A80.42,80.42,0,0,0,482.48,80.41Z"/><path class="cls-1" d="M482.48,160.83a80.42,80.42,0,0,0-80.41-80.42v80.42a80.41,80.41,0,0,0,80.41,80.41h80.41A80.41,80.41,0,0,0,482.48,160.83Z"/><path class="cls-1" d="M241.24,0a80.41,80.41,0,0,0,80.41,80.41V0Z"/></g></g></svg>