<svg xmlns="http://www.w3.org/2000/svg" viewBox="0 0 240.22 70.82"><defs><style>.a{fill:#fff;}.b{fill:#29fd2e;}</style></defs><path class="a" d="M123.61,20.85V6.61h2.78V20.85Z"/><path class="a" d="M133.63,21a6.69,6.69,0,0,1-5.2-1.88l1.8-1.8a4.62,4.62,0,0,0,3.42,1.2c1.66,0,2.54-.64,2.54-1.78a1.61,1.61,0,0,0-.44-1.18,2,2,0,0,0-1.28-.48l-1.7-.26A4.72,4.72,0,0,1,130,13.61a3.71,3.71,0,0,1-1-2.8c0-2.54,1.88-4.32,5-4.32a6.1,6.1,0,0,1,4.6,1.66l-1.76,1.74a3.92,3.92,0,0,0-2.92-1c-1.48,0-2.18.82-2.18,1.8a1.34,1.34,0,0,0,.4,1,2.32,2.32,0,0,0,1.3.54l1.7.26a4.5,4.5,0,0,1,2.72,1.12,3.89,3.89,0,0,1,1.1,3C138.91,19.41,136.63,21,133.63,21Z"/><path class="a" d="M149.63,20.85l-.84-2.52h-5.06l-.86,2.52H140l5.18-14.24h2.18l5.2,14.24Zm-3.32-10L144.51,16h3.54Z"/><path class="a" d="M160.25,20.85h-6V6.61H160c2.78,0,4.4,1.56,4.4,4a3.29,3.29,0,0,1-1.76,2.94,3.3,3.3,0,0,1,2,3.2C164.61,19.41,162.79,20.85,160.25,20.85Zm-.46-11.76h-2.72v3.28h2.72a1.65,1.65,0,0,0,.36-3.28Zm.18,5.78h-2.9v3.5H160a1.75,1.75,0,0,0,0-3.5Z"/><path class="a" d="M167.45,20.85V6.61h9.38V9.09h-6.6v3.34h5.62v2.48h-5.62v3.46h6.6v2.48Z"/><path class="a" d="M179.55,20.85V6.61h2.78V18.37h6.46v2.48Z"/><path class="a" d="M191.05,20.85V6.61h2.78V18.37h6.46v2.48Z"/><path class="a" d="M210.65,20.85l-.84-2.52h-5.06l-.86,2.52H201l5.18-14.24h2.18l5.2,14.24Zm-3.32-10L205.53,16h3.54Z"/><path class="a" d="M129.57,42.85h-6V28.61h5.72c2.78,0,4.4,1.56,4.4,4A3.3,3.3,0,0,1,132,35.55a3.3,3.3,0,0,1,2,3.2C133.93,41.41,132.11,42.85,129.57,42.85Zm-.46-11.76h-2.72v3.28h2.72a1.65,1.65,0,0,0,.36-3.28A2.16,2.16,0,0,0,129.11,31.09Zm.18,5.78h-2.9v3.5h2.9a1.75,1.75,0,0,0,0-3.5Z"/><path class="a" d="M136.77,42.85V28.61h2.78V42.85Z"/><path class="a" d="M142.87,42.85V28.61h2.78V40.37h6.46v2.48Z"/><path class="a" d="M154.37,42.85V28.61h9.38v2.48h-6.6v3.34h5.62v2.48h-5.62v3.46h6.6v2.48Z"/><path class="a" d="M171.91,31.09V42.85h-2.78V31.09h-3.72V28.61h10.22v2.48Z"/><path class="a" d="M183.33,31.09V42.85h-2.78V31.09h-3.72V28.61h10.22v2.48Z"/><path class="a" d="M196,42.85l-.84-2.52H190.1l-.86,2.52h-2.9l5.18-14.24h2.18l5.2,14.24Zm-3.32-10L190.89,38h3.54Z"/><path class="b" d="M128.45,65a4.88,4.88,0,0,1-3.56-1.4c-1.34-1.34-1.42-2.58-1.42-5.84s.08-4.5,1.42-5.84a4.88,4.88,0,0,1,3.56-1.4,4.82,4.82,0,0,1,4.94,4.24h-1.56a3.35,3.35,0,0,0-3.38-2.88,3.39,3.39,0,0,0-2.46,1c-.9.92-1,2-1,4.88s.1,4,1,4.88a3.49,3.49,0,0,0,5.88-1.88h1.52A4.83,4.83,0,0,1,128.45,65Z"/><path class="b" d="M144.53,63.57a5.19,5.19,0,0,1-7.1,0C136.09,62.23,136,61,136,57.73s.08-4.5,1.42-5.84a5.19,5.19,0,0,1,7.1,0c1.34,1.34,1.44,2.58,1.44,5.84S145.87,62.23,144.53,63.57Zm-1.08-10.72a3.53,3.53,0,0,0-4.92,0c-.9.92-1,2-1,4.88s.1,4,1,4.88a3.53,3.53,0,0,0,4.92,0c.9-.92,1-2,1-4.88S144.35,53.77,143.45,52.85Z"/><path class="b" d="M158.63,64.85l-7.56-11.42V64.85h-1.52V50.61H151L158.55,62V50.61h1.52V64.85Z"/><path class="b" d="M167.85,65A6.17,6.17,0,0,1,163,63.09l1-1a4.89,4.89,0,0,0,3.88,1.54c2.1,0,3.38-1,3.38-2.64a2.25,2.25,0,0,0-.7-1.78,3.07,3.07,0,0,0-1.86-.7L167,58.27a5,5,0,0,1-2.6-1.08,3.39,3.39,0,0,1-1.1-2.68c0-2.42,1.74-4,4.56-4a5.81,5.81,0,0,1,4.24,1.56l-1,1a4.41,4.41,0,0,0-3.32-1.24c-1.92,0-3,1.06-3,2.66a2.11,2.11,0,0,0,.64,1.66,3.83,3.83,0,0,0,1.86.74l1.66.26a4.29,4.29,0,0,1,2.58,1,3.56,3.56,0,0,1,1.2,2.8C172.77,63.43,170.83,65,167.85,65Z"/><path class="b" d="M180.71,65a4.69,4.69,0,0,1-5-4.39c0-.14,0-.29,0-.43V50.61h1.52V60a3.45,3.45,0,0,0,6.9,0h0V50.61h1.52v9.54A4.72,4.72,0,0,1,181.07,65,2.16,2.16,0,0,1,180.71,65Z"/><path class="b" d="M189.61,64.85V50.61h1.52V63.49h7.28v1.36Z"/><path class="b" d="M203.65,52V64.85h-1.52V52H198V50.61h9.76V52Z"/><path class="b" d="M210.43,64.85V50.61H212V64.85Z"/><path class="b" d="M225.15,64.85l-7.56-11.42V64.85h-1.52V50.61h1.44L225.07,62V50.61h1.52V64.85Z"/><path class="b" d="M239,63.33A5,5,0,0,1,235.2,65a4.88,4.88,0,0,1-3.56-1.4c-1.34-1.34-1.42-2.58-1.42-5.84s.08-4.5,1.42-5.84a5.1,5.1,0,0,1,8.54,2.86h-1.52a3.42,3.42,0,0,0-3.46-2.9,3.35,3.35,0,0,0-2.46,1c-.9.92-1,2-1,4.88s.1,4,1,4.88a3.35,3.35,0,0,0,2.46,1,3.45,3.45,0,0,0,2.7-1.22,3.8,3.8,0,0,0,.8-2.58v-1.1h-3.5v-1.3h5v2.26A4.85,4.85,0,0,1,239,63.33Z"/><path class="b" d="M30.91,0V2A15.43,15.43,0,0,0,26,2.78a3.64,3.64,0,0,0-2,2.35,19,19,0,0,0-.56,5.47V60.21A19.28,19.28,0,0,0,24,65.67,3.63,3.63,0,0,0,26,68a15.53,15.53,0,0,0,4.88.78v2H0v-2A15.45,15.45,0,0,0,4.86,68a3.67,3.67,0,0,0,2.05-2.35,19.28,19.28,0,0,0,.56-5.46V10.6a19,19,0,0,0-.56-5.47A3.66,3.66,0,0,0,4.83,2.78,15.27,15.27,0,0,0,0,2V0H30.6"/><path class="b" d="M61.82.1a40.78,40.78,0,0,1,13.6,2,17.85,17.85,0,0,1,8.32,5.51,12.92,12.92,0,0,1,2.78,8.23,14,14,0,0,1-2.14,7.28,19.4,19.4,0,0,1-6.67,6.32,32.75,32.75,0,0,1-11.16,4v.19a42.59,42.59,0,0,1,14.5,3.3,18.92,18.92,0,0,1,8.13,6.4,14.38,14.38,0,0,1,2.52,8.13A17,17,0,0,1,88.4,62a19.85,19.85,0,0,1-9.49,6.59,44,44,0,0,1-14.8,2.22H30.91v-2A15.48,15.48,0,0,0,35.77,68a3.67,3.67,0,0,0,2-2.35,19.28,19.28,0,0,0,.56-5.46V10.6a19,19,0,0,0-.56-5.47,3.66,3.66,0,0,0-2.08-2.35A15.54,15.54,0,0,0,30.91,2V0ZM56.57,2.71a3.8,3.8,0,0,0-1.78,2.51,22.1,22.1,0,0,0-.49,5.38V33.2h4.29q6.55,0,9.13-4.44t2.59-11.87q0-7.51-2.32-11.2C66.44,3.23,64,2,60.5,2A8.41,8.41,0,0,0,56.57,2.71ZM71.73,64.06Q75.09,59.62,75.1,51q0-7.86-4-12T58.5,34.91H54.3v25.3a19.44,19.44,0,0,0,.53,5.32,3.57,3.57,0,0,0,2,2.34,11.32,11.32,0,0,0,4.39.64Q68.36,68.51,71.73,64.06Z"/></svg>