<?xml version="1.0" encoding="utf-8"?>
<!-- Generator: Adobe Illustrator 26.0.0, SVG Export Plug-In . SVG Version: 6.00 Build 0)  -->
<svg version="1.1" id="Layer_1" xmlns="http://www.w3.org/2000/svg" xmlns:xlink="http://www.w3.org/1999/xlink" x="0px" y="0px"
	 viewBox="0 0 240.2 70.8" style="enable-background:new 0 0 240.2 70.8;" xml:space="preserve">
<style type="text/css">
	.st0{fill:#FFFFFF;}
	.st1{fill:#29FD2E;}
</style>
<g id="Layer_2_00000064341109923176212410000002097364599617835931_">
	<g id="Layer_1-2">
		<g id="Group_6">
			<g id="ISABELLA_BILETTA_CONSULTING">
				<g>
					<path class="st0" d="M123.6,20.9V6.6h2.8v14.2H123.6z"/>
					<path class="st0" d="M133.6,21c-1.9,0.2-3.8-0.5-5.2-1.9l1.8-1.8c0.9,0.8,2.2,1.3,3.4,1.2c1.7,0,2.5-0.6,2.5-1.8
						c0-0.4-0.1-0.9-0.4-1.2c-0.4-0.3-0.8-0.5-1.3-0.5l-1.7-0.3c-1-0.1-2-0.5-2.8-1.2c-0.7-0.8-1.1-1.8-1-2.8c0-2.5,1.9-4.3,5-4.3
						c1.7-0.1,3.4,0.5,4.6,1.7l-1.8,1.7c-0.8-0.7-1.9-1.1-2.9-1c-1.5,0-2.2,0.8-2.2,1.8c0,0.4,0.1,0.7,0.4,1
						c0.4,0.3,0.8,0.5,1.3,0.5l1.7,0.3c1,0.1,2,0.5,2.7,1.1c0.8,0.8,1.2,1.9,1.1,3C138.9,19.4,136.6,21,133.6,21z"/>
					<path class="st0" d="M149.6,20.9l-0.8-2.5h-5.1l-0.9,2.5H140l5.2-14.2h2.2l5.2,14.2H149.6z M146.3,10.9l-1.8,5.1h3.5
						L146.3,10.9z"/>
					<path class="st0" d="M160.2,20.9h-6V6.6h5.8c2.8,0,4.4,1.6,4.4,4c0,1.2-0.7,2.4-1.8,2.9c1.3,0.5,2.1,1.8,2,3.2
						C164.6,19.4,162.8,20.9,160.2,20.9z M159.8,9.1h-2.7v3.3h2.7c0.9,0.1,1.7-0.6,1.8-1.5c0.1-0.9-0.6-1.7-1.5-1.8
						C160,9.1,159.9,9.1,159.8,9.1z M160,14.9h-2.9v3.5h2.9c1,0,1.8-0.8,1.8-1.8S161,14.9,160,14.9L160,14.9z"/>
					<path class="st0" d="M167.4,20.9V6.6h9.4v2.5h-6.6v3.3h5.6v2.5h-5.6v3.5h6.6v2.5L167.4,20.9z"/>
					<path class="st0" d="M179.6,20.9V6.6h2.8v11.8h6.5v2.5H179.6z"/>
					<path class="st0" d="M191.1,20.9V6.6h2.8v11.8h6.5v2.5H191.1z"/>
					<path class="st0" d="M210.6,20.9l-0.8-2.5h-5.1l-0.9,2.5H201l5.2-14.2h2.2l5.2,14.2H210.6z M207.3,10.9l-1.8,5.1h3.5
						L207.3,10.9z"/>
				</g>
				<g>
					<path class="st0" d="M129.6,42.8h-6V28.6h5.7c2.8,0,4.4,1.6,4.4,4c0,1.2-0.6,2.3-1.7,2.9c1.3,0.5,2.1,1.8,2,3.2
						C133.9,41.4,132.1,42.8,129.6,42.8z M129.1,31.1h-2.7v3.3h2.7c0.9,0.1,1.7-0.6,1.8-1.5c0.1-0.9-0.6-1.7-1.5-1.8
						C129.4,31.1,129.2,31.1,129.1,31.1z M129.3,36.9h-2.9v3.5h2.9c1,0,1.8-0.8,1.8-1.8S130.3,36.9,129.3,36.9z"/>
					<path class="st0" d="M136.8,42.8V28.6h2.8v14.2H136.8z"/>
					<path class="st0" d="M142.9,42.8V28.6h2.8v11.8h6.5v2.5H142.9z"/>
					<path class="st0" d="M154.4,42.8V28.6h9.4v2.5h-6.6v3.3h5.6v2.5h-5.6v3.5h6.6v2.5H154.4z"/>
					<path class="st0" d="M171.9,31.1v11.8h-2.8V31.1h-3.7v-2.5h10.2v2.5H171.9z"/>
					<path class="st0" d="M183.3,31.1v11.8h-2.8V31.1h-3.7v-2.5h10.2v2.5H183.3z"/>
					<path class="st0" d="M196,42.8l-0.8-2.5h-5.1l-0.9,2.5h-2.9l5.2-14.2h2.2l5.2,14.2H196z M192.7,32.8l-1.8,5.2h3.5L192.7,32.8z"
						/>
				</g>
				<g>
					<path class="st1" d="M128.4,65c-1.3,0-2.6-0.5-3.6-1.4c-1.3-1.3-1.4-2.6-1.4-5.8s0.1-4.5,1.4-5.8c0.9-0.9,2.2-1.4,3.6-1.4
						c2.5-0.1,4.6,1.8,4.9,4.2h-1.6c-0.2-1.7-1.7-2.9-3.4-2.9c-0.9,0-1.8,0.3-2.5,1c-0.9,0.9-1,2-1,4.9s0.1,4,1,4.9
						c1.4,1.3,3.6,1.3,4.9,0c0.5-0.5,0.8-1.1,0.9-1.8h1.5C133.1,63.2,130.9,65.1,128.4,65z"/>
					<path class="st1" d="M144.5,63.6c-2,1.9-5.1,1.9-7.1,0c-1.3-1.3-1.4-2.6-1.4-5.8s0.1-4.5,1.4-5.8c2-1.9,5.1-1.9,7.1,0
						c1.3,1.3,1.4,2.6,1.4,5.8S145.9,62.2,144.5,63.6z M143.4,52.8c-1.4-1.3-3.6-1.3-4.9,0c-0.9,0.9-1,2-1,4.9s0.1,4,1,4.9
						c1.4,1.3,3.6,1.3,4.9,0c0.9-0.9,1-2,1-4.9S144.4,53.8,143.4,52.8z"/>
					<path class="st1" d="M158.6,64.8l-7.6-11.4v11.4h-1.5V50.6h1.4l7.6,11.4V50.6h1.5v14.2H158.6z"/>
					<path class="st1" d="M167.9,65c-1.8,0.1-3.6-0.6-4.9-1.9l1-1c1,1.1,2.4,1.6,3.9,1.5c2.1,0,3.4-1,3.4-2.6c0-0.7-0.2-1.3-0.7-1.8
						c-0.5-0.4-1.2-0.7-1.9-0.7l-1.7-0.2c-1-0.1-1.9-0.5-2.6-1.1c-0.7-0.7-1.2-1.7-1.1-2.7c0-2.4,1.7-4,4.6-4
						c1.6-0.1,3.1,0.5,4.2,1.6l-1,1c-0.9-0.9-2.1-1.3-3.3-1.2c-1.9,0-3,1.1-3,2.7c0,0.6,0.2,1.2,0.6,1.7c0.5,0.4,1.2,0.7,1.9,0.7
						l1.7,0.3c0.9,0,1.9,0.4,2.6,1c0.8,0.7,1.2,1.7,1.2,2.8C172.8,63.4,170.8,65,167.9,65z"/>
					<path class="st1" d="M180.7,65c-2.6,0.2-4.8-1.8-5-4.4c0-0.1,0-0.3,0-0.4v-9.6h1.5V60c0,1.9,1.5,3.5,3.4,3.5
						c1.9,0,3.5-1.5,3.5-3.4c0,0,0,0,0,0v-9.4h1.5v9.5c0.1,2.6-2,4.8-4.6,4.9C180.9,65,180.8,65,180.7,65z"/>
					<path class="st1" d="M189.6,64.8V50.6h1.5v12.9h7.3v1.4H189.6z"/>
					<path class="st1" d="M203.6,52v12.8h-1.5V52H198v-1.4h9.8V52H203.6z"/>
					<path class="st1" d="M210.4,64.8V50.6h1.6v14.2H210.4z"/>
					<path class="st1" d="M225.1,64.8l-7.6-11.4v11.4h-1.5V50.6h1.4l7.6,11.4V50.6h1.5v14.2H225.1z"/>
					<path class="st1" d="M239,63.3c-1,1.1-2.4,1.7-3.8,1.6c-1.3,0-2.6-0.5-3.6-1.4c-1.3-1.3-1.4-2.6-1.4-5.8s0.1-4.5,1.4-5.8
						c2-1.9,5.3-1.9,7.2,0.2c0.7,0.7,1.2,1.7,1.3,2.7h-1.5c-0.3-1.7-1.7-2.9-3.5-2.9c-0.9,0-1.8,0.3-2.5,1c-0.9,0.9-1,2-1,4.9
						s0.1,4,1,4.9c0.6,0.7,1.5,1,2.5,1c1,0,2-0.4,2.7-1.2c0.6-0.7,0.9-1.7,0.8-2.6v-1.1h-3.5v-1.3h5v2.3
						C240.3,61,239.9,62.3,239,63.3z"/>
				</g>
			</g>
		</g>
		<path class="st1" d="M30.9,0v2c-1.7,0-3.3,0.3-4.9,0.8c-1,0.4-1.7,1.3-2,2.4c-0.4,1.8-0.6,3.6-0.6,5.5v49.6
			c-0.1,1.8,0.1,3.7,0.6,5.5c0.3,1,1,1.9,2,2.3c1.6,0.5,3.2,0.8,4.9,0.8v2H0v-2c1.7,0,3.3-0.3,4.9-0.8c1-0.4,1.8-1.3,2-2.3
			c0.4-1.8,0.6-3.6,0.6-5.5V10.6c0.1-1.8-0.1-3.7-0.6-5.5C6.6,4.1,5.8,3.2,4.8,2.8C3.3,2.3,1.6,2,0,2V0h30.6"/>
		<path class="st1" d="M61.8,0.1c4.6-0.1,9.2,0.6,13.6,2c3.2,1,6.1,2.9,8.3,5.5c1.8,2.3,2.8,5.2,2.8,8.2c0,2.6-0.8,5.1-2.1,7.3
			c-1.7,2.6-4,4.8-6.7,6.3c-3.4,2-7.2,3.4-11.2,4v0.2c5,0.2,9.9,1.4,14.5,3.3c3.3,1.3,6.1,3.6,8.1,6.4c1.6,2.4,2.5,5.2,2.5,8.1
			c0.1,3.8-1.1,7.5-3.3,10.5c-2.4,3.1-5.7,5.4-9.5,6.6c-4.8,1.6-9.8,2.3-14.8,2.2H30.9v-2c1.7,0,3.3-0.3,4.9-0.8
			c1-0.5,1.7-1.3,2-2.3c0.4-1.8,0.6-3.6,0.6-5.5V10.6c0.1-1.8-0.1-3.7-0.6-5.5c-0.3-1.1-1.1-1.9-2.1-2.3C34.1,2.3,32.5,2,30.9,2V0
			L61.8,0.1z M56.6,2.7c-0.9,0.5-1.6,1.5-1.8,2.5c-0.4,1.8-0.5,3.6-0.5,5.4v22.6h4.3c4.4,0,7.4-1.5,9.1-4.4s2.6-6.9,2.6-11.9
			c0-5-0.8-8.7-2.3-11.2c-1.5-2.5-4-3.7-7.5-3.7C59.2,1.9,57.8,2.2,56.6,2.7z M71.7,64.1c2.2-3,3.4-7.3,3.4-13.1c0-5.2-1.3-9.2-4-12
			c-2.7-2.8-6.9-4.1-12.6-4.1h-4.2v25.3c-0.1,1.8,0.1,3.6,0.5,5.3c0.3,1,1,1.9,2,2.3c1.4,0.5,2.9,0.7,4.4,0.6
			C66,68.5,69.5,67,71.7,64.1z"/>
	</g>
</g>
</svg>
