<?xml version="1.0" encoding="utf-8"?>
<!-- Generator: Adobe Illustrator 26.0.0, SVG Export Plug-In . SVG Version: 6.00 Build 0)  -->
<svg version="1.1" id="Layer_1" xmlns="http://www.w3.org/2000/svg" xmlns:xlink="http://www.w3.org/1999/xlink" x="0px" y="0px"
	 viewBox="0 0 1052.3 812.5" style="enable-background:new 0 0 1052.3 812.5;" xml:space="preserve">
<style type="text/css">
	.st0{fill:#29FD2E;}
</style>
<g id="Layer_2_00000091722085074020785670000009692394113617817247_">
	<g id="Layer_1-2">
		<path class="st0" d="M1023.3,496.7c-23.7-32.7-56-58.1-93.3-73.4c-52.8-22.3-109.1-35.1-166.4-37.9v-2.2
			c45.1-7.4,88.5-22.9,128.1-45.9c30.9-17.7,57.2-42.6,76.5-72.5c15.7-25.1,24.2-54,24.6-83.5c0.6-34.2-10.7-67.6-31.9-94.4
			c-25.2-29.7-58.3-51.6-95.5-63.2C815.1,7.2,762.3-0.6,709.4,0.7L354.7,0H0v22.9c18.8,0,37.5,3,55.4,9c11.6,4.9,20.4,14.8,23.9,27
			c5.1,20.5,7.3,41.6,6.4,62.8v569.3c0.9,21.1-1.3,42.2-6.4,62.7c-3.3,11.9-11.7,21.8-22.9,27c-18.2,6-37.2,9.1-56.3,9v22.9h735.6
			c57.6,1.3,115.1-7.3,169.8-25.5c43-13.8,80.9-40.1,108.9-75.5c25.8-35.1,39.1-77.8,37.9-121.3
			C1052.2,556.8,1042.2,524.2,1023.3,496.7z M623.1,121.6c-0.7-20.7,1.2-41.5,5.6-61.7c2.4-12.1,9.8-22.5,20.4-28.8
			c14.2-6.3,29.6-9.1,45.1-8.1c39.6,0,68.3,14.1,86.1,42.3s26.6,71.1,26.6,128.5c0,56.8-9.9,102.2-29.7,136.2
			c-19.8,34-54.8,51-104.9,50.9h-49.2V121.6z M440.4,690.9c0.9,21.1-1.3,42.2-6.4,62.7c-3.3,11.9-11.7,21.8-22.9,27
			c-36.6,12.1-76.1,12-112.7-0.2c-11.2-5.1-19.6-14.9-22.9-26.7c-5.1-20.5-7.3-41.6-6.4-62.7V121.6c-0.9-21.1,1.3-42.3,6.4-62.8
			c3.3-12,11.7-21.8,22.9-27c36.2-11.9,75.2-11.9,111.4,0c11.6,4.9,20.4,14.8,23.9,27c5.1,20.5,7.3,41.6,6.4,62.8L440.4,690.9z
			 M823.1,735c-25.8,34-66.1,51-121.1,51.1c-17.1,0.9-34.2-1.6-50.4-7.3c-11.3-5-19.8-14.9-22.9-26.9c-4.8-20-6.8-40.5-6.1-61V400.6
			h48.2c66.1,0,114.4,15.7,144.8,47c30.4,31.4,45.7,77.3,45.9,137.7C861.7,651.2,848.9,701.1,823.1,735z"/>
	</g>
</g>
</svg>
